<svg width="20" height="25" viewBox="0 0 20 25"
     xmlns="http://www.w3.org/2000/svg">
<path d="M19.3257 2.10975C18.8903 1.69423 18.3111 1.46533 17.6949 1.46533H16.6721V2.44187C16.6721 3.5188 15.7529 4.39495 14.623 4.39495H5.40251C4.27267 4.39495 3.35349 3.5188 3.35349 2.44187V1.46533H2.32728C1.05764 1.46533 0.0235913 2.44988 0.0221554 3.6601L1.60955e-06 22.8002C-0.000716339 23.3876 0.238771 23.9399 0.674207 24.3555C1.10975 24.771 1.68892 24.9999 2.30513 24.9999H17.6727C18.9423 24.9999 19.9764 24.0154 19.9778 22.8051L20 3.66498C20.0007 3.07765 19.7612 2.52532 19.3257 2.10975ZM10.2612 8.78937H15.7204C16.1447 8.78937 16.4887 9.11729 16.4887 9.52177C16.4887 9.92625 16.1447 10.2542 15.7204 10.2542H10.2612C9.83687 10.2542 9.49287 9.92625 9.49287 9.52177C9.49287 9.11729 9.83687 8.78937 10.2612 8.78937ZM10.2612 13.6721H15.7204C16.1447 13.6721 16.4887 14 16.4887 14.4045C16.4887 14.8089 16.1447 15.1369 15.7204 15.1369H10.2612C9.83687 15.1369 9.49287 14.8089 9.49287 14.4045C9.49287 14 9.83687 13.6721 10.2612 13.6721ZM10.2612 18.5547H15.7423C16.1667 18.5547 16.5107 18.8827 16.5107 19.2872C16.5107 19.6916 16.1667 20.0196 15.7423 20.0196H10.2612C9.83687 20.0196 9.49287 19.6916 9.49287 19.2872C9.49287 18.8827 9.83687 18.5547 10.2612 18.5547ZM3.71441 8.81827C4.01451 8.53224 4.50098 8.53224 4.80108 8.81827L5.21887 9.21655L6.99087 7.52753C7.29098 7.24155 7.77744 7.24146 8.07749 7.52753C8.37754 7.81351 8.37754 8.27727 8.07749 8.5633L5.76215 10.7702C5.69084 10.8382 5.60615 10.8921 5.51292 10.9289C5.41969 10.9657 5.31975 10.9847 5.21882 10.9847C5.11789 10.9847 5.01795 10.9657 4.92472 10.9289C4.83149 10.8921 4.7468 10.8382 4.67549 10.7702L3.71436 9.85399C3.41431 9.56801 3.41431 9.10425 3.71441 8.81827ZM3.71441 14.0739C4.01451 13.7878 4.50098 13.7878 4.80108 14.0739L5.21887 14.4721L6.99087 12.7831C7.29092 12.4971 7.77744 12.4971 8.07749 12.7831C8.37754 13.069 8.37754 13.5328 8.07749 13.8188L5.76215 16.0258C5.69084 16.0937 5.60614 16.1477 5.51291 16.1845C5.41968 16.2213 5.31975 16.2402 5.21882 16.2402C5.1179 16.2402 5.01796 16.2213 4.92473 16.1845C4.8315 16.1477 4.74681 16.0937 4.67549 16.0258L3.71436 15.1096C3.41431 14.8236 3.41431 14.3599 3.71441 14.0739ZM3.71441 18.9565C4.01451 18.6705 4.50098 18.6705 4.80108 18.9565L5.21887 19.3548L6.99087 17.6658C7.29092 17.3798 7.77744 17.3798 8.07749 17.6658C8.37754 17.9517 8.37754 18.4155 8.07749 18.7015L5.76215 20.9084C5.69084 20.9764 5.60614 21.0304 5.51291 21.0672C5.41968 21.104 5.31975 21.1229 5.21882 21.1229C5.1179 21.1229 5.01796 21.104 4.92473 21.0672C4.8315 21.0304 4.74681 20.9764 4.67549 20.9084L3.71436 19.9923C3.41431 19.7063 3.41431 19.2426 3.71441 18.9565Z" />
<path d="M4.89062 2.44134C4.89062 2.71102 5.11996 2.92961 5.40288 2.92961H14.6234C14.9063 2.92961 15.1356 2.71102 15.1356 2.44134V0.488269C15.1356 0.218598 14.9063 0 14.6234 0H5.40288C5.11996 0 4.89062 0.218598 4.89062 0.488269V2.44134Z"/>
</svg>
