<svg width="41" height="41" viewBox="0 0 41 41" fill="none" xmlns="http://www.w3.org/2000/svg">
<path d="M31.4291 19.1334C36.7084 19.1334 40.9882 14.8502 40.9882 9.56669C40.9882 4.28315 36.7084 0 31.4291 0C26.1498 0 21.8701 4.28315 21.8701 9.56669C21.8701 14.8502 26.1498 19.1334 31.4291 19.1334Z" fill="#F9D266"/>
<path d="M34.1329 0.388141C34.0401 1.03968 33.7156 1.63585 33.2189 2.06715C32.7222 2.49844 32.0867 2.7359 31.4291 2.7359C30.7715 2.7359 30.1359 2.49844 29.6392 2.06715C29.1425 1.63585 28.818 1.03968 28.7252 0.388141C30.4907 -0.12938 32.3674 -0.12938 34.1329 0.388141Z" fill="#F3A748"/>
<path d="M33.4775 25.9666C33.0655 25.9694 32.6544 26.006 32.2484 26.076C31.0449 25.1187 29.5525 24.5983 28.0152 24.6C27.897 24.6 27.7816 24.6116 27.6649 24.6177C27.2817 24.1826 26.8103 23.8341 26.282 23.5953C25.7538 23.3566 25.1808 23.2332 24.6012 23.2333C24.5603 23.2333 24.52 23.2381 24.479 23.2394C24.1393 21.2114 23.0503 19.3852 21.4279 18.1234C19.8056 16.8615 17.7685 16.2561 15.721 16.4274C13.6734 16.5987 11.765 17.5341 10.3745 19.048C8.98392 20.5619 8.21288 22.5436 8.21433 24.6C6.94592 24.5969 5.69411 24.8885 4.55749 25.452C3.42087 26.0155 2.43049 26.8353 1.66435 27.847C0.898208 28.8587 0.377227 30.0346 0.142442 31.2821C-0.0923432 32.5296 -0.0345213 33.8146 0.311354 35.036C0.657229 36.2573 1.28171 37.3816 2.13562 38.3203C2.98952 39.2589 4.04953 39.9864 5.23215 40.4453C6.41477 40.9043 7.68771 41.0822 8.95071 40.965C10.2137 40.8478 11.4323 40.4387 12.5104 39.77C13.6293 40.5519 14.9572 40.9794 16.3218 40.9968C17.6863 41.0142 19.0246 40.6208 20.1631 39.8677C21.4395 40.7122 22.963 41.1017 24.4877 40.9732C26.0124 40.8448 27.4495 40.2059 28.5669 39.1598C29.4831 39.9557 30.5784 40.5177 31.759 40.7976C32.9396 41.0775 34.1703 41.0669 35.346 40.7669C36.5216 40.4669 37.6072 39.8863 38.5097 39.0748C39.4122 38.2633 40.1049 37.2451 40.5284 36.1072C40.9519 34.9693 41.0937 33.7457 40.9416 32.5411C40.7895 31.3364 40.3481 30.1865 39.6551 29.1899C38.9621 28.1932 38.0381 27.3794 36.9623 26.818C35.8864 26.2567 34.6907 25.9646 33.4775 25.9666Z" fill="#363A4F"/>
<path d="M17.0906 33.4834H15.725C15.7228 31.4905 14.9309 29.5799 13.5228 28.1707C12.1147 26.7615 10.2056 25.9689 8.21436 25.9667V24.6001C10.5677 24.6026 12.8239 25.5393 14.488 27.2047C16.1521 28.8701 17.0881 31.1282 17.0906 33.4834ZM21.1873 28.0167H19.8217C19.823 26.7485 20.327 25.5326 21.223 24.6358C22.1191 23.739 23.334 23.2347 24.6012 23.2334V24.6001C23.6958 24.6001 22.8275 24.96 22.1872 25.6008C21.547 26.2415 21.1873 27.1106 21.1873 28.0167ZM29.0093 38.6501C28.2687 38.0087 27.6747 37.2153 27.2676 36.3238C26.8604 35.4323 26.6497 34.4636 26.6496 33.4834H25.284C25.2848 34.6407 25.5305 35.7847 26.0049 36.8401C26.4793 37.8955 27.1716 38.8384 28.0364 39.6068C28.2199 39.4682 28.3962 39.3204 28.5648 39.164L29.0093 38.6501Z" fill="#2C2F41"/>
<path d="M35.5258 9.56681C36.6571 9.56681 37.5741 8.64899 37.5741 7.5168C37.5741 6.38462 36.6571 5.4668 35.5258 5.4668C34.3945 5.4668 33.4774 6.38462 33.4774 7.5168C33.4774 8.64899 34.3945 9.56681 35.5258 9.56681Z" fill="#F3A748"/>
<path d="M29.3808 15.7167C30.135 15.7167 30.7464 15.1049 30.7464 14.3501C30.7464 13.5953 30.135 12.9834 29.3808 12.9834C28.6266 12.9834 28.0153 13.5953 28.0153 14.3501C28.0153 15.1049 28.6266 15.7167 29.3808 15.7167Z" fill="#F3A748"/>
<path d="M27.3325 7.51654C28.0867 7.51654 28.6981 6.90466 28.6981 6.14987C28.6981 5.39508 28.0867 4.7832 27.3325 4.7832C26.5783 4.7832 25.9669 5.39508 25.9669 6.14987C25.9669 6.90466 26.5783 7.51654 27.3325 7.51654Z" fill="#F3A748"/>
<path d="M25.284 12.9833C25.0139 12.9833 24.7499 12.9032 24.5254 12.753C24.3008 12.6028 24.1258 12.3894 24.0224 12.1397C23.919 11.8899 23.892 11.6152 23.9447 11.35C23.9974 11.0849 24.1274 10.8414 24.3184 10.6503C24.5094 10.4592 24.7527 10.329 25.0176 10.2763C25.2825 10.2235 25.5571 10.2506 25.8066 10.354C26.0561 10.4575 26.2694 10.6326 26.4195 10.8574C26.5695 11.0821 26.6496 11.3464 26.6496 11.6167C26.6496 11.9791 26.5057 12.3268 26.2496 12.5831C25.9935 12.8394 25.6462 12.9833 25.284 12.9833ZM35.5258 15.7167C35.2558 15.7167 34.9917 15.6365 34.7672 15.4864C34.5426 15.3362 34.3676 15.1227 34.2642 14.873C34.1609 14.6233 34.1338 14.3485 34.1865 14.0834C34.2392 13.8183 34.3693 13.5748 34.5602 13.3836C34.7512 13.1925 34.9945 13.0623 35.2594 13.0096C35.5243 12.9569 35.7989 12.9839 36.0484 13.0874C36.298 13.1908 36.5112 13.366 36.6613 13.5907C36.8113 13.8155 36.8914 14.0797 36.8914 14.35C36.8914 14.7125 36.7475 15.0601 36.4915 15.3164C36.2354 15.5727 35.888 15.7167 35.5258 15.7167Z" fill="#F3A748"/>
<path d="M16.4078 0C16.4078 1.08739 16.8394 2.13024 17.6077 2.89914C18.376 3.66804 19.418 4.10001 20.5045 4.10001C19.418 4.10001 18.376 4.53197 17.6077 5.30087C16.8394 6.06977 16.4078 7.11263 16.4078 8.20002C16.4078 7.11263 15.9762 6.06977 15.2079 5.30087C14.4396 4.53197 13.3976 4.10001 12.311 4.10001C13.3976 4.10001 14.4396 3.66804 15.2079 2.89914C15.9762 2.13024 16.4078 1.08739 16.4078 0ZM4.1176 14.35C4.1176 15.4374 4.54922 16.4803 5.3175 17.2492C6.08579 18.0181 7.1278 18.45 8.21432 18.45C7.1278 18.45 6.08579 18.882 5.3175 19.6509C4.54922 20.4198 4.1176 21.4627 4.1176 22.55C4.1176 21.4627 3.68598 20.4198 2.9177 19.6509C2.14941 18.882 1.10739 18.45 0.020874 18.45C1.10739 18.45 2.14941 18.0181 2.9177 17.2492C3.68598 16.4803 4.1176 15.4374 4.1176 14.35Z" fill="#FCE797"/>
<path d="M40.9882 21.8669H38.9398V19.8169H37.5742V21.8669H35.5259V23.2329H37.5742V25.2829H38.9398V23.2336H40.9882V21.8669Z" fill="#C8CDED"/>
</svg>
