<svg width="22" height="20" viewBox="0 0 22 20"  xmlns="http://www.w3.org/2000/svg">
<path fill-rule="evenodd" clip-rule="evenodd" d="M11.7628 2.05382C11.4358 1.76299 11.0192 1.60313 10.5884 1.60313C10.1575 1.60313 9.74095 1.76299 9.41388 2.05382L3.62811 8.11359V17.061C3.62811 17.799 4.20555 18.3979 4.91704 18.3979H6.72155V13.3188C6.72183 12.6808 6.96638 12.069 7.40145 11.618C7.83652 11.1669 8.42649 10.9135 9.04163 10.9135H12.1351C12.7504 10.9135 13.3405 11.1671 13.7756 11.6184C14.2107 12.0696 14.4552 12.6817 14.4552 13.3199V18.3979H16.2597C16.9712 18.3979 17.5486 17.799 17.5486 17.061V8.11359L11.7628 2.05382ZM19.0953 9.48683L19.8811 10.1852C20.0376 10.3156 20.2369 10.3776 20.4368 10.3584C20.6367 10.3391 20.8215 10.2399 20.9522 10.0819C21.0829 9.92382 21.1492 9.71925 21.1371 9.51141C21.125 9.30357 21.0355 9.10874 20.8875 8.96812L12.7692 0.836727C12.1619 0.296787 11.3883 0 10.5884 0C9.78841 0 9.01486 0.296787 8.40748 0.836727L0.289253 8.96812C0.208402 9.03544 0.141426 9.11892 0.0923059 9.21362C0.0431861 9.30832 0.0129258 9.41229 0.00332391 9.51936C-0.00627799 9.62643 0.00497461 9.73441 0.0364128 9.83688C0.0678509 9.93935 0.118833 10.0342 0.186327 10.1158C0.253822 10.1975 0.336451 10.2642 0.429302 10.312C0.522153 10.3599 0.62333 10.3878 0.726819 10.3943C0.830307 10.4008 0.933994 10.3856 1.03171 10.3497C1.12943 10.3138 1.21919 10.2578 1.29565 10.1852L2.08139 9.4879V17.0599C2.08166 17.8398 2.38054 18.5876 2.9123 19.1389C3.44406 19.6903 4.16516 20 4.91704 20H16.2597C17.0116 20 17.7327 19.6903 18.2644 19.1389C18.7962 18.5876 19.0951 17.8398 19.0953 17.0599V9.48683ZM12.9084 18.3958V13.3178C12.9084 13.105 12.827 12.901 12.6819 12.7506C12.5369 12.6002 12.3402 12.5156 12.1351 12.5156H9.04163C8.83653 12.5156 8.63982 12.6002 8.49479 12.7506C8.34975 12.901 8.26827 13.105 8.26827 13.3178V18.3958H12.9084Z" />
</svg>
