<svg width="41" height="41" viewBox="0 0 41 41" fill="none" xmlns="http://www.w3.org/2000/svg">
<path fill-rule="evenodd" clip-rule="evenodd" d="M24.8056 22.0846C21.1815 22.0846 18.2425 19.1456 18.2425 15.5216C18.2425 11.8976 21.1814 8.95865 24.8056 8.95865C28.4298 8.95865 31.3686 11.8976 31.3686 15.5216C31.3686 19.1456 28.4297 22.0846 24.8056 22.0846ZM23.3131 8.59058C24.2904 8.22783 25.32 8.22783 26.2976 8.59058L24.8053 2.60693L23.3131 8.59058ZM20.9598 21.4776C20.0122 21.0429 19.2842 20.3148 18.8495 19.3672L15.6737 24.6533L20.9598 21.4776ZM30.7618 11.6757L33.9377 6.38949L28.6516 9.56525C29.599 9.99995 30.3272 10.728 30.7618 11.6757ZM17.8745 17.0138C17.5118 16.0363 17.5118 15.0069 17.8745 14.0292L11.891 15.5216L17.8745 17.0138ZM31.7365 17.0138C32.0993 16.0363 32.0993 15.0069 31.7365 14.0292L37.7202 15.5216L31.7365 17.0138ZM18.8493 11.6758C19.2841 10.7282 20.012 10.0002 20.9598 9.56545L15.6734 6.3897L18.8493 11.6758ZM28.6513 21.4777L33.9374 24.6537L30.7618 19.3674C30.3269 20.315 29.5989 21.0431 28.6513 21.4777ZM23.3131 22.4527C24.2904 22.8154 25.32 22.8154 26.2976 22.4527L24.8053 28.4362L23.3131 22.4527Z" fill="#FFCC00"/>
<path fill-rule="evenodd" clip-rule="evenodd" d="M34.7577 27.667C35.0116 29.1095 35.7733 29.8308 35.7733 30.552C35.7733 31.2731 35.5194 31.9944 34.7577 31.9944C33.996 31.9944 33.7419 31.2731 33.7419 30.552C33.7419 29.8308 34.5036 29.1095 34.7577 27.667ZM17.8192 33.8071C18.0732 35.2495 18.8348 35.9709 18.8348 36.6921C18.8348 37.4134 18.5808 38.1346 17.8192 38.1346C17.0575 38.1346 16.8036 37.4134 16.8036 36.6921C16.8036 35.971 17.5653 35.2495 17.8192 33.8071ZM23.3243 32.7485C23.578 34.191 24.3397 34.9123 24.3397 35.6335C24.3397 36.3548 24.086 37.0761 23.3243 37.0761C22.5623 37.0761 22.3086 36.3548 22.3086 35.6335C22.3086 34.9123 23.0702 34.191 23.3243 32.7485ZM28.4057 29.5726C28.6596 31.0151 29.4214 31.7364 29.4214 32.4576C29.4214 33.1788 29.1673 33.9001 28.4057 33.9001C27.644 33.9001 27.3901 33.1788 27.3901 32.4576C27.3901 31.7364 28.1518 31.0151 28.4057 29.5726ZM31.37 33.9129C31.6239 35.3555 32.3855 36.0768 32.3855 36.798C32.3855 37.5193 32.1316 38.2405 31.37 38.2405C30.6083 38.2405 30.3544 37.5193 30.3544 36.798C30.3544 36.0769 31.1159 35.3556 31.37 33.9129Z" fill="#78B7EA"/>
<path fill-rule="evenodd" clip-rule="evenodd" d="M9.08233 29.4582C5.85655 28.8346 3.45764 26.4903 3.45764 23.6942C3.45764 20.4213 6.74379 17.7671 10.7958 17.7671C13.9022 17.7671 16.5583 19.3272 17.6289 21.5298C18.43 21.2873 19.2977 21.154 20.2037 21.154C20.9723 21.154 21.713 21.2499 22.4093 21.4269C23.0667 18.6985 26.0417 16.6382 29.6115 16.6382C33.6637 16.6382 36.9497 19.2923 36.9497 22.5651C36.9497 25.838 33.6637 28.4921 29.6115 28.4921C28.843 28.4921 28.1022 28.3965 27.4059 28.2195C26.7483 30.9477 23.7736 33.0078 20.2037 33.0078C19.2244 33.0078 18.2897 32.8526 17.4355 32.5712C16.6658 33.7829 15.1408 34.6087 13.3856 34.6087C10.855 34.6087 8.80271 32.8934 8.80271 30.7781C8.80271 30.3141 8.90162 29.8697 9.08233 29.4582Z" fill="#78B7EA"/>
</svg>
